<?xml version="1.0" standalone="no"?>
<!DOCTYPE svg PUBLIC "-//W3C//DTD SVG 20010904//EN"
 "http://www.w3.org/TR/2001/REC-SVG-20010904/DTD/svg10.dtd">
<svg version="1.0" xmlns="http://www.w3.org/2000/svg"
 width="1472.000000pt" height="832.000000pt" viewBox="0 0 1472.000000 832.000000"
 preserveAspectRatio="xMidYMid meet">

<g transform="translate(0.000000,832.000000) scale(0.100000,-0.100000)"
fill="#000000" stroke="none">
<path d="M3386 8258 c-19 -35 -63 -106 -98 -158 -89 -135 -134 -229 -167 -350
-16 -58 -36 -125 -45 -149 -34 -94 -23 -106 189 -187 217 -84 401 -149 442
-157 28 -6 64 11 93 43 17 19 212 179 300 247 368 283 858 536 1390 719 l155
53 -1112 1 -1111 0 -36 -62z"/>
<path d="M8961 8288 c-11 -18 -28 -42 -38 -53 -34 -37 -189 -239 -245 -320
-31 -44 -69 -93 -85 -109 -47 -48 -165 -131 -213 -150 -56 -22 -124 -60 -171
-97 -36 -28 -104 -141 -92 -153 3 -3 3 -6 -1 -6 -19 0 -178 173 -195 212 -31
71 -46 169 -32 208 6 18 10 35 8 36 -11 11 -137 -72 -137 -91 0 -5 -18 -11
-40 -12 -34 -2 -38 0 -28 11 7 7 19 11 27 8 9 -3 12 -1 7 6 -4 7 -1 12 9 12 9
0 13 5 10 11 -4 6 2 13 14 16 12 3 21 9 21 14 0 5 7 9 16 9 9 0 27 9 41 20 32
25 26 25 -37 0 -27 -11 -50 -16 -50 -11 0 13 -48 31 -85 31 -34 0 -65 -21 -65
-45 0 -14 -20 -21 -97 -31 -29 -3 -53 -11 -53 -16 0 -5 -4 -6 -10 -3 -15 9
-130 -14 -171 -36 -21 -10 -40 -27 -44 -36 -3 -10 -54 -51 -113 -91 -59 -40
-126 -87 -148 -105 -23 -18 -64 -45 -90 -62 -34 -21 -58 -46 -79 -83 -16 -29
-54 -89 -82 -134 -77 -117 -70 -136 31 -102 61 21 158 14 195 -14 59 -43 25
-151 -76 -241 -35 -32 -61 -66 -78 -106 -24 -54 -85 -138 -85 -117 0 5 9 17
19 26 25 22 45 71 37 91 -3 9 -18 15 -38 14 -32 0 -35 -4 -82 -99 -41 -85 -57
-107 -113 -155 -35 -30 -68 -55 -71 -55 -4 0 -24 27 -45 60 -21 33 -43 60 -49
60 -32 0 -101 -77 -154 -173 -54 -97 -117 -177 -157 -198 -15 -8 -21 -3 -37
33 -45 100 -14 227 83 334 77 86 41 80 -103 -16 -96 -63 -111 -71 -89 -43 13
15 11 16 -12 10 -21 -5 -28 -3 -32 13 -9 36 -49 25 -79 -23 -24 -38 -58 -73
-221 -229 -28 -27 -53 -48 -58 -48 -9 0 -69 -74 -69 -86 0 -4 11 7 25 26 14
19 33 39 43 44 10 6 5 -4 -11 -23 -33 -40 -49 -70 -70 -133 -16 -45 -14 -61 8
-123 l8 -20 -17 20 c-17 20 -17 20 -12 -5 5 -22 4 -21 -9 5 -17 36 -19 108 -4
137 7 13 7 18 1 14 -16 -10 -45 -105 -39 -132 2 -13 1 -24 -2 -24 -4 0 -5 -16
-3 -35 2 -19 0 -35 -5 -35 -10 0 -7 -88 7 -175 5 -33 12 -95 15 -137 3 -42 12
-98 20 -125 8 -26 24 -102 35 -168 19 -106 28 -132 79 -230 32 -60 61 -128 65
-150 23 -139 41 -224 52 -252 8 -17 14 -37 13 -45 0 -7 -5 -1 -11 15 -14 40
-28 33 -17 -9 6 -19 9 -45 6 -57 -2 -13 -7 -3 -12 28 -4 28 -14 55 -20 60 -12
10 -18 30 -35 134 -13 77 -31 97 -123 141 -120 57 -217 160 -217 230 0 13 -5
20 -12 18 -35 -11 -86 -188 -112 -387 -11 -86 -22 -134 -37 -158 -18 -28 -21
-49 -20 -136 1 -147 19 -197 89 -252 25 -19 54 -35 65 -35 19 0 19 6 15 138
-4 97 -10 148 -22 176 -10 21 -15 40 -13 42 2 2 12 -13 21 -35 20 -43 40 -51
125 -51 l46 0 0 -253 c1 -276 5 -304 58 -363 39 -45 86 -64 159 -64 82 0 140
34 174 102 l25 50 -3 261 -3 262 78 3 78 3 -3 -293 -3 -293 -27 -55 c-33 -68
-92 -131 -151 -159 -94 -45 -302 -34 -397 21 -86 51 -103 59 -109 53 -3 -4 5
-15 18 -26 13 -10 19 -19 14 -19 -6 0 -18 9 -28 20 -20 22 -35 26 -35 9 0 -15
127 -204 190 -284 76 -95 139 -148 233 -194 49 -24 121 -69 160 -101 40 -31
105 -78 145 -104 40 -25 97 -66 127 -91 76 -62 104 -74 188 -85 82 -10 127
-24 127 -40 0 -5 -4 -10 -10 -10 -18 0 -10 -56 10 -75 30 -28 62 -105 50 -120
-7 -9 -6 -16 5 -25 21 -17 19 -38 -7 -78 l-23 -34 -65 6 c-36 4 -74 8 -85 9
-42 4 -17 -30 76 -108 136 -113 229 -158 394 -188 112 -21 139 -30 190 -62 53
-34 68 -39 138 -43 68 -4 88 -1 165 26 48 17 103 34 122 37 19 4 85 31 145 60
129 61 291 135 355 161 28 12 64 18 99 17 37 -1 66 4 92 18 44 22 214 73 228
67 5 -1 -9 -31 -31 -65 -35 -56 -48 -67 -116 -101 -43 -21 -88 -42 -102 -46
-55 -17 42 -28 195 -23 166 5 217 17 305 69 42 26 55 39 56 58 1 14 6 35 12
47 6 11 8 23 5 27 -3 3 -1 6 5 6 7 0 11 4 9 8 -1 4 4 24 12 43 12 31 17 35 40
31 14 -3 23 -1 19 3 -9 9 16 35 33 35 7 0 4 -6 -7 -15 -23 -17 -14 -19 20 -4
14 7 23 15 21 20 -3 4 0 11 6 15 8 4 9 3 5 -4 -15 -24 9 -11 45 24 24 23 35
42 32 52 -4 9 -2 13 4 9 5 -3 10 -1 10 6 0 7 14 36 32 66 18 29 29 56 26 59
-3 4 -9 1 -13 -5 -10 -15 -54 -21 -59 -7 -2 6 19 36 47 67 l50 55 -24 55 c-19
43 -32 57 -57 66 -42 15 -50 14 -43 -4 4 -10 -3 -18 -19 -24 -26 -10 -43 -33
-58 -80 -6 -19 -7 -14 -4 19 4 32 2 39 -4 25 -8 -16 -10 -10 -10 27 -1 31 6
59 19 80 11 18 20 26 20 18 1 -8 10 2 21 23 l20 38 33 -20 c40 -25 91 -27 104
-5 7 13 13 14 30 5 23 -12 182 -15 182 -3 0 4 14 13 31 21 23 10 29 18 26 32
-4 14 3 24 24 34 16 9 29 20 29 24 0 5 14 23 30 39 17 17 30 37 30 45 0 8 7
28 15 43 8 16 15 55 15 86 0 57 -9 79 -68 178 -11 19 -30 72 -42 118 -11 46
-31 111 -43 145 -23 62 -122 225 -156 256 -10 9 -33 36 -50 61 -31 43 -31 43
18 -10 72 -78 69 -36 -3 52 -65 78 -67 79 -260 77 l-138 -1 23 -26 24 -26 -29
22 c-16 12 -33 22 -38 22 -5 0 -7 -39 -6 -87 l3 -88 176 -3 c125 -2 180 -6
187 -15 5 -6 12 -36 16 -64 l7 -53 -64 0 c-35 0 -98 -3 -139 -6 l-74 -7 -11
-101 c-6 -55 -8 -103 -6 -106 11 -12 192 -4 216 9 15 8 24 17 22 21 -2 4 0 20
5 36 7 25 8 23 9 -23 l1 -53 55 0 55 0 0 -67 0 -68 -225 3 -225 2 -48 -102
c-59 -124 -92 -177 -170 -272 -93 -114 -183 -178 -347 -247 -211 -90 -466
-112 -735 -63 l-25 4 25 -11 c14 -6 52 -17 85 -25 l60 -14 -85 4 c-113 6 -321
65 -437 124 -65 34 -113 69 -105 77 4 5 1 5 -6 1 -15 -9 -50 20 -186 153 -127
124 -176 194 -172 246 2 23 -5 54 -18 82 -18 37 -24 43 -44 38 -13 -3 -50 -3
-83 1 l-59 7 0 129 c0 98 -4 134 -15 152 -40 60 -93 327 -78 387 7 24 23 25
24 2 1 -12 4 -10 9 7 l8 25 2 -25 c1 -21 3 -22 9 -7 4 10 11 18 16 17 6 0 13
21 16 47 33 269 116 505 252 712 229 349 576 608 1003 750 254 85 487 117 774
108 508 -16 976 -172 1400 -466 256 -178 472 -402 662 -687 57 -86 184 -318
199 -363 3 -9 12 -8 34 3 46 24 134 39 192 33 61 -6 162 -49 193 -82 25 -27
22 -45 -18 -93 l-28 -33 -58 30 c-47 25 -70 31 -122 31 -65 0 -109 -13 -118
-35 -8 -22 12 -86 34 -110 13 -13 37 -27 54 -31 223 -47 316 -128 303 -264
-11 -128 -107 -224 -245 -246 l-42 -7 0 -141 c0 -449 -103 -885 -305 -1301
-131 -268 -257 -465 -433 -679 -44 -54 -60 -77 -37 -56 21 19 34 29 30 21 -14
-24 -18 -91 -5 -91 6 0 8 -5 4 -12 -4 -6 -9 -35 -10 -62 l-2 -51 -136 -131
c-74 -73 -177 -163 -228 -202 -138 -103 -325 -222 -351 -222 -18 0 -19 -2 -7
-10 8 -5 10 -10 4 -10 -6 0 -14 3 -18 7 -7 8 -36 10 -161 14 l-50 1 35 19 c66
37 14 14 -150 -68 -807 -400 -1712 -524 -2640 -362 -260 46 -514 117 -748 210
-134 53 -431 199 -557 274 -513 304 -982 756 -1322 1274 -56 86 -106 161 -112
167 -18 21 -162 307 -216 429 -87 196 -198 523 -271 795 -78 293 -107 395
-116 413 -6 11 -20 17 -45 17 l-36 0 6 -160 c19 -458 135 -931 338 -1379 11
-24 28 -64 39 -90 57 -146 233 -464 384 -696 276 -422 754 -995 1084 -1298 40
-37 71 -67 68 -67 -7 0 -278 154 -326 186 -338 220 -583 441 -896 809 -105
124 -329 446 -414 595 -348 615 -526 1118 -612 1735 -20 143 -22 201 -22 545
-1 394 7 507 50 770 33 202 109 524 159 671 l25 72 -20 32 c-19 30 -120 125
-134 125 -17 0 0 -26 55 -80 72 -72 72 -67 15 -260 -107 -366 -178 -812 -195
-1230 -7 -157 -8 -163 -9 -63 -1 61 -8 135 -14 165 l-13 53 -6 -45 -6 -45 -1
54 c-2 52 -2 53 -20 32 -15 -19 -20 -20 -44 -9 -18 9 -28 21 -28 36 0 12 -5
21 -12 20 -19 -4 -22 75 -8 212 31 331 82 565 201 933 39 120 68 224 66 232
-6 15 -138 58 -164 53 -19 -3 -67 -130 -142 -373 -61 -198 -72 -238 -115 -451
-70 -339 -86 -499 -93 -894 -7 -442 14 -674 98 -1085 31 -150 49 -215 136
-480 127 -388 331 -793 592 -1178 36 -54 76 -113 88 -131 l22 -34 -62 -7 c-60
-6 -388 -111 -572 -182 -404 -156 -442 -176 -415 -207 8 -11 30 -16 70 -16 89
0 247 -27 319 -55 36 -13 125 -38 196 -54 292 -66 559 -190 641 -298 61 -81
80 -171 38 -187 -19 -7 -102 6 -224 35 -125 31 -186 29 -309 -10 -131 -42
-331 -120 -408 -160 l-58 -30 1340 0 1340 1 -94 44 c-51 24 -126 62 -167 85
-41 22 -74 38 -74 35 0 -5 98 -68 123 -78 9 -4 17 -12 17 -17 0 -5 8 -12 17
-14 12 -3 10 -5 -7 -6 -87 -3 -422 182 -662 366 -246 189 -539 474 -670 653
-23 31 -52 121 -31 95 4 -6 40 -39 78 -75 39 -36 60 -54 49 -40 -192 226 -355
431 -400 500 -16 25 -31 47 -34 50 -12 11 -151 230 -199 315 -48 83 -221 427
-221 439 0 3 -11 30 -25 60 -14 30 -25 61 -25 68 0 7 -7 26 -15 42 -36 68
-120 347 -170 556 -19 85 -42 178 -50 205 -8 28 -22 80 -31 117 -9 37 -20 66
-24 63 -11 -7 -29 153 -41 368 -12 216 -5 437 14 449 6 4 15 4 18 0 4 -4 12
-124 18 -267 12 -282 37 -579 52 -606 5 -10 9 -34 9 -54 0 -27 5 -38 18 -42
10 -2 24 -17 31 -34 11 -25 18 -29 52 -29 41 0 41 -1 52 -70 3 -14 3 11 1 55
-6 149 -14 260 -20 285 -14 58 -21 149 -15 185 6 35 8 30 15 -45 33 -366 117
-742 241 -1075 73 -197 268 -615 288 -615 4 0 7 -6 7 -13 0 -7 14 -35 32 -63
18 -27 32 -52 33 -56 0 -4 6 -13 13 -20 6 -6 12 -18 12 -25 0 -6 8 -17 18 -22
9 -6 14 -11 10 -11 -21 -1 275 -419 415 -586 415 -498 882 -846 1526 -1140
l73 -34 261 0 261 0 -137 69 c-75 39 -182 95 -237 127 -178 100 -608 395 -609
417 -1 11 40 -3 57 -19 7 -8 19 -14 27 -14 7 0 25 -6 39 -14 15 -8 35 -12 45
-9 35 9 50 82 17 84 -6 0 -1 4 12 9 18 8 41 -1 122 -45 54 -30 102 -55 107
-55 4 0 -30 22 -77 49 -256 145 -490 310 -687 484 -101 89 -328 320 -446 454
-152 173 -345 479 -490 777 -48 98 -86 180 -84 182 1 2 31 -49 66 -112 223
-408 496 -795 769 -1093 274 -298 687 -598 1104 -802 101 -49 130 -66 93 -54
-15 5 -17 4 -6 -3 8 -6 20 -8 27 -5 7 2 21 0 31 -7 16 -10 15 -10 -4 -5 -34 9
-28 -1 7 -14 18 -6 28 -6 25 -1 -3 6 1 7 9 4 9 -3 14 -9 11 -14 -7 -11 132
-63 146 -54 7 4 9 3 6 -4 -7 -11 81 -47 235 -98 58 -18 83 -31 75 -37 -7 -5 2
-6 23 -3 19 3 28 3 20 -1 -34 -15 -36 -26 -8 -55 15 -16 28 -35 28 -43 0 -8 5
-15 10 -15 6 0 8 -10 5 -23 -4 -15 0 -29 13 -40 17 -16 191 -17 2841 -15
l2823 3 -23 29 c-33 41 -33 56 -1 52 15 -2 21 -1 15 1 -12 4 -19 23 -8 23 3 0
27 -16 55 -36 27 -20 50 -31 50 -24 0 6 5 8 10 5 6 -3 10 -17 10 -31 l0 -24
118 0 117 0 47 48 c27 27 45 52 40 57 -4 4 0 6 9 2 17 -6 20 -3 100 80 26 26
62 62 80 80 19 18 39 38 45 45 6 7 23 22 38 33 16 11 45 38 65 59 20 21 42 45
49 52 7 8 11 14 7 14 -6 0 22 47 42 70 8 8 45 58 83 110 85 115 102 138 97
125 -7 -19 -40 -90 -54 -118 -7 -15 -11 -27 -8 -27 13 0 140 279 150 330 6 29
-11 50 -39 50 -11 0 -65 -30 -118 -66 -108 -74 -148 -83 -209 -48 -65 38 -61
86 17 244 23 47 49 121 59 165 17 75 35 132 72 215 40 93 45 113 47 208 2 60
-1 72 -14 72 -9 0 -20 4 -26 10 -6 6 -38 -5 -89 -32 -75 -39 -86 -42 -177 -46
-66 -3 -119 1 -165 11 -68 16 -105 19 -99 8 2 -3 -2 -12 -10 -18 -10 -10 -15
-10 -22 3 -10 19 -22 8 -53 -52 -11 -22 -17 -30 -15 -19 3 11 2 26 -3 34 -6 9
-9 7 -9 -10 0 -22 -18 -91 -54 -216 -7 -24 -15 -43 -19 -43 -3 0 -9 44 -11 98
-4 58 -18 149 -37 227 -37 152 -97 361 -113 392 -6 12 -8 34 -4 50 4 18 3 23
-2 14 -6 -8 -9 8 -8 47 0 33 3 59 6 57 3 -2 6 4 7 13 3 44 11 74 20 80 5 4 24
33 42 64 33 59 53 81 27 29 -9 -16 -13 -31 -11 -33 3 -3 -2 -27 -10 -54 -21
-70 -19 -82 24 -165 50 -95 64 -145 16 -59 -19 36 -43 80 -52 97 -15 31 -33
44 -33 25 0 -54 56 -173 73 -155 6 6 96 -176 98 -197 1 -8 4 -1 8 15 4 17 4
41 0 55 -11 36 -17 150 -8 150 4 0 10 -10 12 -23 2 -12 5 -1 6 24 2 84 14 199
19 194 3 -3 13 -52 23 -108 10 -61 17 -87 18 -65 0 21 12 72 26 114 14 42 25
84 25 94 0 10 11 25 24 33 13 9 34 37 46 63 23 46 23 48 10 206 -11 148 -11
160 6 179 9 10 20 36 24 57 13 63 12 -85 -1 -212 -11 -104 -10 -114 10 -166
40 -105 81 -160 181 -241 113 -93 188 -139 238 -149 20 -4 107 -28 192 -53
199 -57 268 -65 352 -36 58 19 177 94 178 112 0 4 -8 7 -17 8 -30 2 50 21 82
20 73 -3 165 45 165 87 0 9 3 28 7 41 5 20 3 23 -10 18 -10 -4 -17 -2 -17 3 0
5 -8 10 -17 12 -15 3 -14 5 5 10 14 4 20 2 15 -4 -3 -7 -1 -8 5 -4 7 4 12 14
12 21 0 8 16 25 35 38 19 13 43 35 55 49 19 25 19 26 1 21 -11 -3 -22 -11 -25
-18 -2 -7 -17 -16 -33 -20 -15 -3 -31 -12 -35 -18 -4 -6 -9 -9 -12 -6 -7 6 38
59 51 59 5 0 21 9 34 20 68 58 112 90 122 90 7 1 21 9 32 18 19 17 26 27 62
83 9 14 26 30 37 35 12 5 22 18 24 29 2 11 11 28 19 37 9 10 13 28 11 43 -4
21 -3 23 9 13 11 -9 16 -9 24 3 12 19 11 46 -1 54 -5 3 -10 11 -10 17 0 7 5 7
14 -1 19 -16 46 11 46 45 0 13 4 24 10 24 5 0 7 7 4 15 -3 8 1 21 9 30 19 18
16 89 -7 189 -9 37 -16 79 -16 93 0 14 -20 59 -44 99 -29 49 -42 81 -39 94 4
14 -3 30 -22 50 -16 16 -44 52 -64 81 -36 51 -55 65 -222 159 -73 41 -149 107
-178 153 -11 18 -41 93 -67 167 -38 107 -49 155 -55 230 -8 105 -26 224 -39
255 -5 11 -11 38 -13 60 -8 68 -57 213 -83 244 -13 16 -24 35 -24 42 0 19 -80
140 -147 222 -188 229 -329 343 -668 536 -44 25 -86 51 -94 59 -7 7 -21 10
-29 7 -9 -3 -13 -3 -10 1 8 7 -69 62 -122 88 -25 12 -29 12 -15 2 60 -45 48
-41 -72 21 -88 45 -128 70 -120 76 8 6 6 7 -5 3 -10 -3 -45 11 -85 35 -38 22
-124 67 -193 101 -119 58 -196 106 -186 115 2 3 19 -3 38 -12 l33 -16 -25 20
c-14 11 -38 30 -53 42 -32 25 -30 36 5 18 20 -11 22 -11 10 3 -7 9 -35 25 -62
37 -27 12 -52 25 -55 31 -3 5 -13 6 -22 3 -12 -5 -14 -3 -8 7 6 10 3 12 -13 8
-12 -4 -20 -3 -17 1 2 5 -15 14 -38 21 -23 7 -53 19 -67 27 -16 9 -17 12 -5 7
122 -42 255 -80 246 -71 -6 7 -60 28 -119 48 l-107 37 71 -3 c39 -1 82 -6 95
-10 51 -16 10 5 -81 40 -52 21 -99 41 -103 45 -10 9 79 -5 158 -24 86 -21 80
-12 -9 15 -85 26 -94 37 -15 20 73 -16 73 -6 0 15 -34 9 -61 20 -61 24 0 16
44 18 81 6 22 -8 39 -10 39 -6 0 4 -12 11 -27 15 -39 9 -111 43 -118 55 -8 12
17 13 31 1 5 -4 23 -11 39 -15 l30 -6 -25 15 c-24 15 -24 15 20 12 25 -3 37
-2 27 0 -9 2 -15 9 -12 14 4 5 0 9 -8 9 -8 0 -25 9 -38 19 l-24 19 48 -11 c26
-5 47 -14 47 -19 0 -4 5 -8 10 -8 23 0 7 22 -37 50 -54 33 -53 37 2 14 20 -8
42 -13 48 -11 7 3 -1 10 -16 16 -16 6 -36 19 -45 28 -16 16 -16 16 6 10 57
-18 68 -19 52 -8 -13 9 -12 12 7 17 12 3 27 19 33 35 12 28 100 101 142 119
21 8 21 9 4 9 -15 1 -17 4 -9 12 18 18 160 -6 283 -47 58 -19 160 -62 226 -94
103 -51 135 -73 210 -143 94 -88 125 -107 149 -87 25 20 17 65 -30 185 -64
164 -148 328 -297 583 -26 45 -48 85 -48 87 0 6 -67 104 -88 128 -8 9 -11 17
-6 17 5 0 4 4 -2 8 -6 4 -37 42 -68 86 -31 43 -56 75 -56 71 0 -4 -20 17 -44
47 -45 55 -112 119 -133 128 -7 3 -30 19 -50 37 -56 47 -186 151 -256 206 -34
27 -61 53 -59 58 1 6 -2 8 -7 5 -5 -3 -32 10 -61 29 l-52 35 -1023 0 -1023 0
-21 -32z m837 -138 c7 -12 10 -25 7 -30 -3 -6 4 -20 17 -32 30 -29 100 -128
90 -128 -4 1 -27 27 -52 58 -25 31 -51 61 -57 65 -7 4 -13 20 -13 35 0 16 -5
33 -12 40 -7 7 -8 12 -2 12 5 0 15 -9 22 -20z m356 -354 c24 -19 12 -40 -15
-26 -11 6 -17 15 -14 19 2 5 -5 11 -16 14 -12 3 -18 10 -14 16 6 12 22 5 59
-23z m66 -89 c0 -6 -7 -1 -16 11 -8 12 -22 22 -30 22 -15 0 -19 12 -7 24 9 9
53 -39 53 -57z m-1920 -283 c-15 -17 -30 -18 -30 -1 0 7 9 13 21 14 17 2 18
-1 9 -13z m-458 -34 c62 -56 69 -61 78 -55 12 8 12 -42 0 -70 -5 -11 -9 -16
-9 -11 -1 5 -10 1 -21 -9 -15 -14 -23 -16 -32 -7 -8 8 -17 7 -34 -4 -21 -15
-23 -14 -39 20 -9 19 -14 40 -10 46 4 6 7 32 7 58 0 73 9 78 60 32z m229 13
c13 -16 12 -17 -3 -4 -10 7 -18 15 -18 17 0 8 8 3 21 -13z m269 3 c0 -7 20
-24 44 -37 25 -13 42 -27 39 -33 -3 -5 -1 -6 6 -2 6 4 103 -33 219 -85 263
-117 294 -132 335 -169 29 -25 49 -32 138 -46 57 -9 163 -36 236 -60 72 -24
167 -49 210 -56 43 -7 69 -14 58 -16 -31 -7 -201 28 -315 64 -58 18 -145 40
-195 48 -58 9 -107 24 -138 41 -30 17 -68 29 -100 31 -48 3 -92 10 -92 14 0 1
-11 2 -25 4 -15 1 -37 12 -50 25 -23 21 -23 23 -5 21 78 -8 46 13 -140 91 -44
18 -86 39 -93 46 -7 7 -19 10 -27 7 -8 -4 -15 -2 -15 4 0 15 -35 21 -56 9 -17
-9 -18 -9 -5 7 12 14 12 19 1 29 -10 10 -11 9 -5 -2 6 -11 4 -13 -7 -8 -9 3
-25 -1 -37 -9 -26 -19 -27 -10 -2 15 11 11 23 16 27 13 4 -4 4 -2 1 5 -4 6
-15 9 -25 7 -9 -2 -23 0 -31 5 -11 7 -10 12 5 29 22 24 44 28 44 8z m-50 -69
c0 -2 -12 -14 -27 -28 l-28 -24 24 28 c23 25 31 32 31 24z m127 -53 c-3 -3
-12 -4 -19 -1 -8 3 -5 6 6 6 11 1 17 -2 13 -5z m3013 -59 c14 -8 21 -14 15
-14 -5 0 -21 6 -35 14 -14 8 -20 14 -15 14 6 0 21 -6 35 -14z m65 -3 c-3 -3
-11 0 -18 7 -9 10 -8 11 6 5 10 -3 15 -9 12 -12z m8 -29 c18 -9 40 -17 49 -18
9 -1 42 -18 72 -38 59 -39 72 -44 60 -25 -4 7 -3 8 5 4 6 -4 9 -12 6 -17 -4
-5 0 -9 7 -9 8 0 32 -18 53 -41 22 -22 79 -73 127 -111 48 -39 89 -77 92 -85
3 -8 -21 1 -57 20 -67 38 -223 93 -358 128 -82 21 -125 38 -61 24 51 -11 37 1
-24 20 -39 12 -52 20 -43 26 16 10 68 2 88 -15 11 -8 13 -8 8 1 -5 7 0 9 13 6
27 -7 25 5 -2 17 l-23 9 23 0 c13 1 42 -8 64 -19 51 -25 66 -25 46 -2 -9 9
-13 22 -11 29 2 6 -1 14 -6 18 -7 3 -8 0 -5 -9 4 -11 0 -16 -12 -16 -9 0 -14
3 -11 7 4 3 -21 17 -56 30 -93 36 -108 44 -72 36 17 -3 42 -12 56 -19 30 -15
58 -4 36 15 -8 6 -19 11 -23 9 -5 -1 -27 8 -49 20 -22 11 -36 21 -32 22 4 0
22 -8 40 -17z m-3090 -30 c-7 -2 -19 -2 -25 0 -7 3 -2 5 12 5 14 0 19 -2 13
-5z m2924 -9 c-3 -3 -12 -4 -19 -1 -8 3 -5 6 6 6 11 1 17 -2 13 -5z m-2882
-14 c-11 -5 -37 -9 -58 -9 -21 -1 -36 -4 -34 -8 3 -5 -15 -8 -39 -8 -89 -1 9
28 111 32 31 2 35 0 20 -7z m232 -16 c-3 -3 -12 -4 -19 -1 -8 3 -5 6 6 6 11 1
17 -2 13 -5z m-214 -11 c-7 -2 -21 -2 -30 0 -10 3 -4 5 12 5 17 0 24 -2 18 -5z
m2812 -3 c3 -5 2 -10 -4 -10 -5 0 -13 5 -16 10 -3 6 -2 10 4 10 5 0 13 -4 16
-10z m-2735 -20 c8 -5 11 -10 5 -10 -5 0 -17 5 -25 10 -8 5 -10 10 -5 10 6 0
17 -5 25 -10z m2617 -16 c-3 -3 -12 -4 -19 -1 -8 3 -5 6 6 6 11 1 17 -2 13 -5z
m236 -1 c-7 -2 -19 -2 -25 0 -7 3 -2 5 12 5 14 0 19 -2 13 -5z m-156 -9 c-3
-3 -12 -4 -19 -1 -8 3 -5 6 6 6 11 1 17 -2 13 -5z m-2611 -50 c9 3 12 1 9 -4
-3 -6 1 -13 10 -17 10 -3 20 -1 24 5 6 10 25 15 49 13 7 0 11 -5 8 -9 -3 -5 3
-22 14 -39 l19 -31 -27 8 c-15 4 -56 22 -92 39 -36 17 -70 31 -77 31 -6 0 -14
4 -18 9 -3 6 10 5 31 0 20 -6 42 -8 50 -5z m529 -98 c22 -12 39 -28 37 -35 -1
-7 2 -10 7 -6 6 3 51 -25 100 -62 49 -37 150 -98 223 -136 146 -74 244 -101
473 -132 163 -22 155 -20 203 -60 46 -40 97 -136 108 -203 4 -29 12 -42 23
-43 13 0 13 -1 -2 -7 -15 -6 -16 -10 -5 -25 8 -10 23 -19 36 -20 12 0 22 -5
22 -9 0 -4 7 -8 15 -8 8 0 15 4 15 10 0 5 6 7 14 4 8 -3 17 -1 21 5 3 6 0 11
-7 12 -7 1 -2 4 11 8 l25 7 -24 22 c-13 12 -19 22 -13 22 21 0 77 -46 100 -83
l23 -37 -25 -10 c-15 -6 -34 -10 -43 -10 -9 0 -24 -5 -32 -10 -12 -8 -10 -10
8 -10 13 0 20 -4 17 -10 -3 -5 4 -11 17 -11 19 -1 18 -3 -7 -8 -29 -7 -28 -7
20 -20 57 -14 177 -69 155 -71 -8 0 5 -12 30 -26 l45 -25 -45 6 -45 6 57 -25
c32 -13 68 -22 80 -19 19 4 20 3 8 -7 -12 -9 -10 -10 13 -6 15 4 27 2 27 -3 0
-5 46 -21 103 -36 201 -53 509 -180 644 -265 61 -39 50 -38 -34 4 -37 18 -86
39 -108 45 -60 18 -155 63 -150 72 3 4 -5 5 -17 1 -16 -4 -19 -2 -13 8 5 9 4
11 -4 6 -6 -4 -49 9 -95 28 -65 28 -110 40 -202 51 -95 12 -132 21 -192 50
-41 19 -79 32 -85 28 -5 -3 -7 -1 -4 4 4 6 0 14 -9 17 -9 4 -13 2 -8 -5 4 -7
1 -10 -7 -7 -8 3 -13 10 -12 16 2 7 -4 9 -14 5 -11 -4 -14 -3 -9 5 4 7 2 10
-6 7 -7 -3 -47 14 -88 37 -98 53 -214 169 -224 221 -4 21 -10 37 -15 37 -4 0
-15 18 -25 40 -10 22 -29 54 -43 70 -13 16 -21 34 -18 40 4 7 0 10 -11 8 -14
-2 -18 2 -16 16 3 14 -1 17 -12 13 -9 -4 -16 -2 -16 3 0 6 -7 10 -15 10 -16 0
-51 16 -130 59 -22 12 -32 20 -22 17 11 -4 16 -2 12 5 -4 5 -16 7 -27 3 -11
-3 -23 -2 -27 2 -7 10 -66 44 -76 44 -3 0 -3 -5 1 -12 8 -13 12 -14 -131 36
-116 41 -115 41 -89 20 25 -20 2 -7 -66 37 -61 40 -221 127 -205 112 12 -12
171 -115 203 -132 13 -7 22 -15 19 -17 -5 -5 -39 13 -123 64 -28 18 -54 32
-57 32 -3 0 -58 25 -122 56 -64 30 -119 53 -123 50 -3 -3 3 -6 13 -6 10 0 16
-3 13 -6 -12 -11 -85 17 -108 41 -37 39 -12 52 30 15 41 -35 62 -40 33 -7 -23
26 -63 94 -63 108 0 15 22 10 65 -15z m-532 -11 c35 -2 102 -14 148 -25 46
-11 96 -20 111 -20 15 0 51 -15 80 -33 29 -18 94 -50 143 -71 134 -57 134 -57
105 -51 l-25 6 25 -15 c29 -18 44 -20 35 -6 -3 6 1 7 10 3 13 -4 14 -8 4 -14
-9 -5 -3 -10 17 -14 37 -7 134 -55 134 -66 0 -4 -17 0 -37 11 -21 10 -85 37
-143 60 -161 63 -260 112 -253 123 3 6 1 7 -4 4 -6 -4 -53 9 -104 28 -51 19
-96 32 -100 30 -18 -12 -229 44 -229 61 0 3 4 3 9 0 5 -4 38 -8 74 -11z m242
5 c7 -12 -19 -12 -55 0 -22 7 -21 8 12 9 20 1 40 -3 43 -9z m1875 -175 l25
-15 -30 7 c-16 3 -41 10 -55 14 -24 7 -24 7 5 8 17 0 41 -6 55 -14z m-160 -6
c-11 -8 -5 -9 25 -5 28 4 34 3 20 -4 -14 -6 -15 -9 -5 -9 8 -1 26 -4 40 -7 21
-5 22 -4 10 6 -13 10 -12 11 3 6 10 -3 28 -6 38 -6 11 0 17 -4 14 -10 -6 -10
4 -13 40 -11 13 0 15 -2 6 -6 -10 -4 -8 -9 10 -19 24 -14 24 -14 -6 -8 -16 3
-51 12 -77 21 -26 8 -61 16 -77 18 -17 2 -41 9 -53 16 -13 7 -24 12 -25 11 -2
-1 -13 -1 -25 -1 -13 1 -5 5 17 9 59 11 61 11 45 -1z m-78 -23 c5 4 20 2 31
-4 12 -5 45 -18 72 -27 66 -23 125 -48 122 -52 -2 -2 -24 4 -50 13 -25 9 -54
14 -64 12 -17 -4 3 -12 150 -55 31 -9 57 -20 57 -25 0 -4 -2 -8 -4 -8 -22 0
-156 34 -213 55 -40 14 -79 25 -87 25 -8 0 -17 4 -21 9 -3 6 7 6 27 1 38 -11
50 -5 17 9 -85 34 -129 56 -129 62 0 5 18 2 41 -6 23 -8 46 -12 51 -9z m-72
-26 c25 -11 37 -18 28 -16 -38 11 -15 -16 30 -35 26 -10 56 -24 67 -29 18 -9
17 -10 -6 -5 -68 13 -226 107 -197 118 7 2 18 1 23 -4 6 -4 31 -17 55 -29z
m727 4 c-3 -3 -12 -4 -19 -1 -8 3 -5 6 6 6 11 1 17 -2 13 -5z m-2077 -14 c0
-5 -2 -10 -4 -10 -3 0 -8 5 -11 10 -3 6 -1 10 4 10 6 0 11 -4 11 -10z m1745 0
c13 -6 15 -9 5 -9 -8 0 -22 4 -30 9 -18 12 -2 12 25 0z m-1630 -36 c28 -11 52
-22 53 -27 2 -4 7 -5 12 -2 4 2 38 -11 76 -30 38 -19 64 -34 59 -35 -12 0
-287 109 -295 117 -8 9 41 -3 95 -23z m-2515 3 c0 -7 -9 -18 -20 -25 -20 -12
-21 -12 -4 13 18 28 24 31 24 12z m4087 -23 c-3 -3 -12 -4 -19 -1 -8 3 -5 6 6
6 11 1 17 -2 13 -5z m-1234 -77 c37 -21 67 -41 67 -43 0 -6 -90 42 -125 66
-41 30 -22 22 58 -23z m-2500 5 c-3 -7 -13 -12 -22 -11 -32 3 -46 -3 -22 -10
23 -6 23 -7 -12 -26 -40 -21 -54 -17 -36 12 22 36 104 68 92 35z m2627 -2 c13
-11 19 -20 13 -20 -5 0 -20 9 -33 20 -13 11 -19 20 -13 20 5 0 20 -9 33 -20z
m-3030 -4 c0 -3 -15 -14 -32 -26 l-33 -22 28 26 c27 25 37 31 37 22z m150 -9
c0 -2 -12 -14 -27 -28 -20 -18 -24 -19 -13 -4 18 24 40 42 40 32z m-905 -37
c-3 -5 -11 -10 -16 -10 -6 0 -7 5 -4 10 3 6 11 10 16 10 6 0 7 -4 4 -10z
m3769 -29 c-2 -3 -12 3 -22 13 -16 17 -16 18 5 5 12 -7 20 -15 17 -18z m1471
19 c13 -5 14 -9 5 -9 -8 0 -24 4 -35 9 -13 5 -14 9 -5 9 8 0 24 -4 35 -9z
m-4357 -25 c-6 -14 -15 -25 -20 -25 -5 0 -1 11 8 25 9 14 18 25 20 25 2 0 -2
-11 -8 -25z m177 -4 c-3 -6 -11 -8 -17 -5 -6 4 -5 9 3 15 16 10 23 4 14 -10z
m3093 -138 c-13 -12 -20 -13 -30 -6 -7 6 -24 13 -38 16 -14 2 0 5 30 6 51 1
53 0 38 -16z m65 -14 c27 -14 54 -42 90 -90 43 -57 31 -56 -20 2 -51 56 -57
62 -88 84 -24 17 -12 20 18 4z m-2328 -20 c4 -11 23 -20 53 -26 l47 -9 -65
-13 c-36 -7 -133 -30 -216 -50 l-152 -38 12 35 c15 42 66 72 176 101 90 24
138 24 145 0z m-1888 -71 c-3 -8 -6 -5 -6 6 -1 11 2 17 5 13 3 -3 4 -12 1 -19z
m4519 -1 c4 -4 -5 -7 -20 -7 -15 0 -25 4 -22 9 7 10 31 9 42 -2z m-103 -100
c49 -71 79 -98 193 -176 54 -36 98 -74 100 -83 2 -15 -4 -14 -34 7 -21 14 -37
30 -37 37 0 6 -6 13 -14 16 -9 3 -11 0 -6 -8 5 -9 4 -11 -4 -6 -6 4 -9 11 -6
15 2 5 -22 27 -54 50 -62 43 -134 117 -164 170 -28 48 -14 37 26 -22z m-43 -7
c6 -11 8 -20 6 -20 -3 0 -10 9 -16 20 -6 11 -8 20 -6 20 3 0 10 -9 16 -20z
m-4769 -207 c18 -20 19 -23 4 -13 -32 24 -47 40 -37 40 4 0 19 -12 33 -27z
m5032 -56 c10 -10 17 -20 15 -22 -4 -4 -68 53 -68 61 0 7 23 -10 53 -39z m137
-21 c0 -2 -10 -2 -22 -1 -12 1 -22 9 -24 18 -2 15 0 15 22 0 13 -8 24 -16 24
-17z m-1000 -22 c0 -2 -9 0 -20 6 -11 6 -20 13 -20 16 0 2 9 0 20 -6 11 -6 20
-13 20 -16z m930 -9 c11 -13 10 -14 -4 -9 -9 3 -16 10 -16 15 0 13 6 11 20 -6z
m106 -2 c-7 -7 20 -33 34 -33 6 0 8 -5 5 -10 -4 -6 -20 0 -40 17 -39 32 -43
43 -15 36 12 -3 19 -8 16 -10z m252 -43 c23 -13 42 -27 42 -32 0 -5 -12 0 -27
10 -16 11 -49 31 -75 46 -27 15 -48 29 -48 32 0 3 15 -3 33 -14 17 -10 51 -30
75 -42z m-1208 4 c0 -2 -9 0 -20 6 -11 6 -20 13 -20 16 0 2 9 0 20 -6 11 -6
20 -13 20 -16z m177 -126 c43 -34 103 -86 133 -116 46 -45 41 -42 -30 18 -47
40 -127 104 -177 143 -51 38 -93 71 -93 74 0 6 82 -52 167 -119z m753 97 c11
-13 10 -14 -4 -9 -9 3 -16 10 -16 15 0 13 6 11 20 -6z m376 -38 c2 -15 0 -15
-22 0 -29 19 -30 20 -2 18 12 -1 22 -9 24 -18z m104 -66 c19 -17 31 -31 25
-31 -5 1 -30 19 -55 41 -25 23 -36 36 -25 30 11 -5 36 -24 55 -40z m-28 -151
c12 -25 23 -48 25 -52 2 -5 2 -8 -1 -8 -3 0 -18 24 -32 53 -15 28 -40 70 -56
92 l-30 40 37 -40 c20 -22 46 -60 57 -85z m562 24 c3 -8 2 -12 -4 -9 -6 3 -10
10 -10 16 0 14 7 11 14 -7z m72 -141 c-3 -7 -1 -13 4 -13 6 0 10 -12 10 -27
l-1 -28 -15 28 c-9 16 -13 35 -10 44 3 8 -1 24 -9 36 -8 12 -15 17 -15 11 0
-5 5 -15 11 -21 8 -8 8 -13 0 -17 -6 -4 -12 1 -12 11 -1 10 -3 25 -4 33 -1 8
-3 23 -4 33 0 10 -5 16 -11 12 -5 -3 -6 -13 -3 -23 7 -18 5 -17 -17 12 -8 11
-10 17 -4 13 7 -4 15 1 18 10 5 13 14 2 37 -42 16 -32 27 -65 25 -72z m-1590
50 c-6 -6 -56 38 -56 49 0 4 14 -4 30 -19 17 -14 28 -28 26 -30z m-4299 -10
c-20 -40 -29 -96 -28 -183 l0 -75 -20 35 c-18 32 -20 33 -14 8 3 -16 1 -28 -4
-28 -22 0 -16 56 13 138 41 111 60 155 64 143 2 -5 -3 -22 -11 -38z m5167 -76
c26 -43 42 -76 37 -73 -5 3 -24 32 -41 64 -18 31 -40 68 -48 82 -9 14 -11 21
-5 15 6 -5 32 -45 57 -88z m752 -32 c-3 -8 -1 -15 4 -15 5 0 6 -7 3 -17 -5
-12 -3 -14 7 -8 9 6 11 4 5 -4 -13 -21 -30 9 -26 47 0 6 4 12 7 12 3 0 4 -7 0
-15z m-692 -71 c3 -8 2 -12 -4 -9 -6 3 -10 10 -10 16 0 14 7 11 14 -7z m760
-60 c34 -73 106 -173 223 -312 30 -35 65 -86 78 -113 30 -59 33 -77 4 -29 -11
19 -26 40 -32 45 -7 6 -24 28 -40 50 -15 22 -50 64 -77 94 -27 29 -47 58 -43
64 3 6 1 7 -4 4 -13 -8 -47 28 -39 42 4 5 2 12 -4 16 -5 3 -10 1 -10 -5 0 -6
-11 1 -24 17 -27 32 -59 93 -53 99 2 2 12 -14 22 -36 16 -36 55 -83 55 -66 0
3 -11 23 -24 44 -49 78 -86 162 -72 162 2 0 20 -34 40 -76z m-601 36 c3 -11 2
-18 -3 -15 -4 3 -10 14 -13 25 -3 11 -2 18 3 15 4 -3 10 -14 13 -25z m138
-100 c34 -52 94 -149 134 -215 39 -66 90 -145 113 -175 23 -30 58 -86 78 -124
30 -55 34 -70 23 -78 -11 -8 -10 -9 3 -4 10 3 20 1 23 -4 4 -6 14 -10 24 -10
11 0 21 -10 25 -22 9 -34 7 -116 -3 -120 -4 -1 30 -118 76 -258 109 -331 118
-363 153 -565 20 -113 32 -216 35 -305 l4 -135 -10 109 c-16 186 -90 528 -144
671 -13 33 -29 79 -36 103 -7 23 -16 42 -21 42 -5 0 -7 10 -4 23 3 12 3 16 0
9 -4 -8 -20 21 -38 65 -17 43 -48 105 -67 138 -35 60 -52 95 -45 95 2 0 28
-40 57 -90 29 -49 55 -88 57 -86 3 4 -84 166 -96 178 -4 3 -23 8 -42 9 -26 3
-34 0 -32 -11 3 -12 0 -11 -15 2 -14 12 -40 16 -110 16 l-93 0 0 -95 0 -95
133 2 c192 3 185 4 191 -27 12 -60 17 -127 9 -117 -5 8 -63 12 -170 13 l-163
2 0 -115 0 -114 195 3 195 3 0 -76 0 -75 -152 6 c-83 4 -207 7 -275 7 l-123 0
2 406 3 406 130 2 c118 1 130 3 133 20 3 13 0 16 -9 11 -8 -5 -10 -4 -5 4 9
14 -34 102 -45 95 -5 -3 -6 3 -2 12 5 13 3 15 -8 9 -8 -4 -11 -5 -7 0 4 4 -3
22 -16 39 -33 44 -39 56 -28 56 13 0 119 -178 128 -213 8 -33 29 -45 53 -30
11 7 21 7 33 -1 27 -17 29 -3 7 43 -11 23 -19 47 -17 53 2 5 14 -13 28 -41 13
-28 27 -51 32 -51 12 0 12 -2 -37 96 -25 48 -45 94 -45 101 0 13 -20 54 -31
63 -3 3 -21 32 -39 65 -18 33 -71 122 -117 199 -127 210 -138 237 -32 76z
m-5596 -18 c-1 -2 -7 11 -13 27 -10 29 -25 44 -19 20 1 -6 -3 -13 -10 -16 -8
-3 -7 9 5 38 l16 42 12 -54 c7 -30 11 -55 9 -57z m5489 51 c9 -18 14 -33 12
-33 -6 0 -36 55 -36 66 0 11 5 3 24 -33z m51 -93 c9 -16 13 -30 11 -30 -3 0
-12 14 -21 30 -9 17 -13 30 -11 30 3 0 12 -13 21 -30z m33 -65 c-3 -3 -9 2
-12 12 -6 14 -5 15 5 6 7 -7 10 -15 7 -18z m32 -55 c6 -11 8 -20 6 -20 -3 0
-10 9 -16 20 -6 11 -8 20 -6 20 3 0 10 -9 16 -20z m20 -150 c12 -23 12 -24 -3
-11 -10 7 -17 20 -17 29 0 18 3 16 20 -18z m-5842 -183 c7 3 12 1 11 -4 -5
-28 3 -51 17 -49 9 0 19 -4 21 -10 4 -11 -16 -11 -54 1 -22 7 -27 20 -24 58 1
9 -3 17 -8 17 -6 0 -11 15 -10 33 l0 32 17 -41 c10 -24 22 -39 30 -37z m5990
28 c-3 -3 -9 2 -12 12 -6 14 -5 15 5 6 7 -7 10 -15 7 -18z m130 -300 c-3 -3
-9 2 -12 12 -6 14 -5 15 5 6 7 -7 10 -15 7 -18z m678 -71 c51 -91 123 -175
315 -369 65 -66 119 -124 119 -128 0 -5 -16 6 -36 25 -81 76 -181 175 -207
207 -15 18 -31 31 -34 28 -3 -4 5 -15 18 -26 13 -11 20 -23 16 -27 -17 -17
-197 193 -212 246 -5 19 -4 21 4 10 9 -13 11 -13 11 1 0 8 -4 19 -8 25 -10 11
-44 94 -38 94 2 0 25 -39 52 -86z m-696 41 c0 -5 -5 -3 -10 5 -5 8 -10 20 -10
25 0 6 5 3 10 -5 5 -8 10 -19 10 -25z m39 -15 c11 -24 11 -24 -3 -6 -9 11 -16
24 -16 30 0 12 5 7 19 -24z m-1 -65 c-3 -3 -9 2 -12 12 -6 14 -5 15 5 6 7 -7
10 -15 7 -18z m56 -17 c23 -41 67 -167 65 -192 0 -6 -13 25 -28 69 -15 44 -38
99 -50 123 -12 23 -19 42 -17 42 3 0 16 -19 30 -42z m16 -257 c0 -32 -6 -24
-14 19 -4 25 -3 31 4 20 5 -8 10 -26 10 -39z m810 -21 c0 -5 -2 -10 -4 -10 -3
0 -8 5 -11 10 -3 6 -1 10 4 10 6 0 11 -4 11 -10z m-10223 -102 c-2 -18 -4 -4
-4 32 0 36 2 50 4 33 2 -18 2 -48 0 -65z m10267 46 c5 -14 4 -15 -9 -4 -17 14
-19 20 -6 20 5 0 12 -7 15 -16z m-817 -216 c-3 -8 -6 -5 -6 6 -1 11 2 17 5 13
3 -3 4 -12 1 -19z m-134 -37 c2 -11 4 -39 2 -63 -1 -24 0 -32 2 -18 10 45 71
-292 98 -535 8 -77 18 -151 21 -164 5 -22 6 -22 23 -7 21 19 31 12 31 -25 0
-18 -10 -36 -30 -52 -16 -14 -30 -31 -30 -38 0 -7 -2 -10 -5 -7 -3 3 -8 34
-11 69 -3 35 -7 82 -9 104 -5 49 -44 202 -90 350 -19 61 -39 133 -44 160 -14
70 -20 186 -10 210 5 13 8 -4 9 -50 2 -81 6 -77 15 18 6 66 18 86 28 48z m144
-13 c-3 -8 -6 -5 -6 6 -1 11 2 17 5 13 3 -3 4 -12 1 -19z m-3332 -266 c-52
-152 -92 -220 -172 -291 -57 -52 -241 -173 -289 -191 -35 -14 -31 8 8 45 18
17 28 24 24 17 -7 -11 -4 -11 12 -1 12 7 19 15 17 18 -3 2 5 13 18 24 29 25
209 165 254 196 31 22 32 25 16 34 -10 6 -21 15 -25 20 -4 7 -16 4 -31 -6 -14
-9 7 16 47 56 39 39 92 104 116 144 25 39 46 70 47 69 2 -2 -17 -62 -42 -134z
m179 49 c15 -29 22 -50 17 -46 -14 8 -51 79 -51 96 0 17 4 12 34 -50z m-30
-48 c36 -40 37 -63 2 -62 -18 0 -19 1 -3 7 16 7 16 9 1 27 -13 17 -15 17 -10
3 4 -13 0 -18 -13 -18 -11 0 -26 -3 -34 -6 -13 -4 -14 1 -7 29 7 35 17 57 25
57 3 0 20 -17 39 -37z m-6254 -8 c0 -8 -7 -15 -16 -15 -14 0 -14 3 -4 15 7 8
14 15 16 15 2 0 4 -7 4 -15z m689 -330 c0 -5 -5 1 -11 15 -20 47 -108 313
-107 324 0 6 27 -65 60 -159 32 -93 59 -174 58 -180z m5660 307 c-7 -10 -19
-19 -27 -19 -11 0 -9 6 8 19 12 10 24 18 26 18 2 0 -1 -8 -7 -18z m-3014 -52
c61 -33 105 -60 100 -60 -12 0 -205 98 -219 111 -23 21 16 4 119 -51z m3105
-10 c0 -5 -9 -6 -20 -3 -11 3 -17 9 -15 14 7 10 35 1 35 -11z m-155 -5 c15 -3
25 -12 25 -22 0 -44 -250 -243 -287 -228 -7 2 -13 -1 -13 -7 0 -8 -7 -6 -17 4
-15 16 -13 21 45 80 33 35 76 81 94 103 63 76 76 86 103 80 14 -3 36 -7 50
-10z m3019 -142 c14 -43 33 -121 42 -175 15 -89 15 -100 0 -153 -28 -93 -41
-67 -42 81 -1 123 -15 269 -29 307 -4 9 -5 17 -2 17 3 0 17 -35 31 -77z
m-9400 -148 c10 -33 29 -89 43 -125 41 -104 74 -220 67 -232 -3 -5 0 -8 5 -8
6 0 11 -8 11 -17 0 -10 9 -36 19 -58 33 -73 33 -104 0 -40 -49 95 -93 211
-128 335 -18 63 -36 129 -41 146 -12 38 -13 81 -2 69 5 -6 17 -37 26 -70z
m6433 20 c0 -8 -4 -12 -9 -9 -5 3 -6 10 -3 15 9 13 12 11 12 -6z m-160 -27
c-3 -8 -6 -5 -6 6 -1 11 2 17 5 13 3 -3 4 -12 1 -19z m3250 -90 c-3 -8 -6 -5
-6 6 -1 11 2 17 5 13 3 -3 4 -12 1 -19z m-3027 -162 c0 -2 -8 -10 -17 -17 -16
-13 -17 -12 -4 4 13 16 21 21 21 13z m4687 -22 c-3 -3 -12 -4 -19 -1 -8 3 -5
6 6 6 11 1 17 -2 13 -5z m-50 -10 c-3 -3 -12 -4 -19 -1 -8 3 -5 6 6 6 11 1 17
-2 13 -5z m-10064 -252 c24 -47 69 -126 87 -152 9 -14 19 -32 22 -40 3 -8 63
-100 132 -205 69 -104 115 -178 102 -163 -13 15 -27 24 -30 21 -3 -4 -6 -2 -6
3 0 5 -20 32 -44 59 -47 52 -176 258 -176 280 0 7 -4 15 -8 17 -9 3 -70 120
-96 181 -17 42 -5 42 17 -1z m3866 11 c-30 -36 -124 -56 -159 -33 -11 7 -1 10
35 10 28 0 68 9 90 19 50 24 50 24 34 4z m4608 -55 c-3 -7 -5 -2 -5 12 0 14 2
19 5 13 2 -7 2 -19 0 -25z m1283 3 c0 -5 -9 -7 -20 -4 -11 3 -20 7 -20 9 0 2
9 4 20 4 11 0 20 -4 20 -9z m-1601 -434 c28 -163 2 -258 -138 -501 -34 -59
-86 -144 -116 -189 -75 -115 -143 -189 -80 -88 21 34 39 66 41 76 8 36 52 126
58 117 4 -6 0 -26 -9 -43 -9 -17 -12 -29 -7 -25 5 3 15 20 23 38 7 18 20 39
29 46 8 8 9 11 3 7 -9 -4 -11 -1 -7 10 4 9 9 14 11 11 5 -5 35 49 93 164 15
30 35 81 44 112 17 59 40 303 30 319 -3 5 -1 9 4 9 6 0 15 -28 21 -63z m499
-156 c11 -6 10 -14 -5 -39 l-19 -30 -1 39 c-2 40 2 45 25 30z m-81 -58 c-3
-10 -5 -4 -5 12 0 17 2 24 5 18 2 -7 2 -21 0 -30z m107 -6 c-7 -18 -24 -23
-24 -8 0 22 13 42 22 33 5 -5 6 -16 2 -25z m333 7 c-3 -3 -12 -4 -19 -1 -8 3
-5 6 6 6 11 1 17 -2 13 -5z m-44 -11 c-7 -2 -19 -2 -25 0 -7 3 -2 5 12 5 14 0
19 -2 13 -5z m-60 -10 c-13 -2 -35 -2 -50 0 -16 2 -5 4 22 4 28 0 40 -2 28 -4z
m-201 -35 c-7 -7 -12 -8 -12 -2 0 14 12 26 19 19 2 -3 -1 -11 -7 -17z m-69
-33 c-3 -9 -8 -14 -10 -11 -3 3 -2 9 2 15 9 16 15 13 8 -4z m131 -21 c3 -8 2
-12 -4 -9 -6 3 -10 10 -10 16 0 14 7 11 14 -7z m69 9 c-7 -2 -19 -2 -25 0 -7
3 -2 5 12 5 14 0 19 -2 13 -5z m-247 -113 c-8 -23 -12 -50 -9 -59 4 -14 3 -14
-7 -1 -10 12 -11 11 -6 -9 3 -16 2 -21 -5 -14 -7 7 -3 32 13 77 13 36 24 62
26 57 1 -4 -4 -28 -12 -51z m67 45 c-3 -9 -8 -14 -10 -11 -3 3 -2 9 2 15 9 16
15 13 8 -4z m-38 -94 c-8 -24 -13 -53 -11 -65 2 -11 1 -15 -1 -8 -3 7 -8 10
-13 7 -5 -3 0 22 12 55 11 34 22 59 24 57 2 -2 -3 -23 -11 -46z m98 34 c-3 -9
-8 -14 -10 -11 -3 3 -2 9 2 15 9 16 15 13 8 -4z m80 -20 c-3 -9 -8 -14 -10
-11 -3 3 -2 9 2 15 9 16 15 13 8 -4z m-128 -72 c-15 -38 -32 -72 -37 -78 -5
-5 0 15 12 45 12 30 27 68 32 83 6 15 13 26 16 23 3 -3 -8 -36 -23 -73z m36
30 c-12 -20 -14 -14 -5 12 4 9 9 14 11 11 3 -2 0 -13 -6 -23z m71 0 c-5 -10
-22 -47 -38 -83 -45 -100 -184 -376 -184 -366 0 19 153 366 161 366 5 0 6 8 2
18 -3 9 -2 14 2 9 5 -4 19 11 32 33 24 40 41 56 25 23z m-218 -29 c3 -8 2 -12
-4 -9 -6 3 -10 10 -10 16 0 14 7 11 14 -7z m133 -16 c-3 -8 -6 -5 -6 6 -1 11
2 17 5 13 3 -3 4 -12 1 -19z m-765 -10 c-7 -7 -12 -8 -12 -2 0 14 12 26 19 19
2 -3 -1 -11 -7 -17z m608 -25 c-11 -17 -11 -17 -6 0 3 10 6 24 7 30 0 9 2 9 5
0 3 -7 0 -20 -6 -30z m56 -6 c0 -13 -6 -24 -13 -24 -8 0 -8 7 0 24 13 29 15
29 13 0z m50 -76 c-15 -28 -28 -51 -31 -51 -3 0 7 25 22 55 15 30 29 53 31 51
2 -2 -8 -27 -22 -55z m-2074 6 c-12 -13 -22 -30 -22 -38 0 -12 2 -12 10 1 5 8
10 10 10 4 0 -6 -20 -33 -44 -60 -24 -27 -42 -53 -39 -59 4 -5 3 -7 -2 -3 -4
4 -19 -7 -34 -25 -14 -18 -30 -34 -35 -36 -5 -2 -23 -17 -40 -33 -117 -112
-282 -238 -351 -268 -22 -9 -58 -20 -80 -24 -22 -4 -44 -11 -50 -15 -5 -4 -19
-11 -30 -14 l-20 -7 20 15 c11 9 27 22 37 29 9 8 40 30 70 49 138 89 340 254
515 420 51 48 96 87 100 87 3 0 -3 -10 -15 -23z m2164 -44 c-8 -15 -15 -25
-16 -21 0 12 23 58 27 54 3 -2 -2 -17 -11 -33z m-150 -79 c-4 -9 -9 -15 -11
-12 -3 3 -3 13 1 22 4 9 9 15 11 12 3 -3 3 -13 -1 -22z m-41 -73 c-21 -43 -29
-39 -8 4 9 19 18 33 21 31 2 -2 -4 -18 -13 -35z m399 17 c-11 -13 -26 -35 -34
-50 -7 -16 -15 -26 -17 -24 -9 8 43 95 56 96 11 0 10 -6 -5 -22z m-203 -35
c-12 -20 -14 -14 -5 12 4 9 9 14 11 11 3 -2 0 -13 -6 -23z m74 -12 c-21 -43
-29 -39 -8 4 9 19 18 33 21 31 2 -2 -4 -18 -13 -35z m43 9 c-7 -10 -14 -17
-17 -15 -4 4 18 35 25 35 2 0 -1 -9 -8 -20z m-718 -29 c0 -30 -17 -34 -22 -6
-4 17 -1 25 8 25 8 0 14 -9 14 -19z m67 -83 c-2 -13 -4 -5 -4 17 -1 22 1 32 4
23 2 -10 2 -28 0 -40z m13 -63 c0 -13 -4 -26 -10 -30 -5 -3 -7 -12 -3 -20 3
-8 1 -15 -5 -15 -5 0 -8 10 -7 23 1 12 3 35 4 50 1 34 21 26 21 -8z m-23 -112
c-3 -10 -5 -4 -5 12 0 17 2 24 5 18 2 -7 2 -21 0 -30z m-9203 -19 c17 -7 24
-13 16 -13 -8 0 -33 9 -55 20 -43 20 -11 15 39 -7z m6786 -8 c0 -2 -7 -7 -16
-10 -8 -3 -12 -2 -9 4 6 10 25 14 25 6z m-6690 -16 l25 -8 -25 0 c-14 0 -34 3
-45 8 l-20 9 20 -1 c11 0 31 -4 45 -8z m73 -17 c-7 -2 -19 -2 -25 0 -7 3 -2 5
12 5 14 0 19 -2 13 -5z m2266 -2 c10 -7 7 -9 -12 -8 -14 1 -23 5 -20 10 6 9
15 9 32 -2z m-2216 -8 c-7 -2 -19 -2 -25 0 -7 3 -2 5 12 5 14 0 19 -2 13 -5z
m44 -9 c-3 -3 -12 -4 -19 -1 -8 3 -5 6 6 6 11 1 17 -2 13 -5z m46 -11 c-7 -2
-19 -2 -25 0 -7 3 -2 5 12 5 14 0 19 -2 13 -5z m60 -10 c-7 -2 -19 -2 -25 0
-7 3 -2 5 12 5 14 0 19 -2 13 -5z m110 -20 c-7 -2 -21 -2 -30 0 -10 3 -4 5 12
5 17 0 24 -2 18 -5z m72 -13 c25 -11 -1 -11 -35 0 -20 6 -21 8 -5 8 11 0 29
-3 40 -8z m185 -61 c39 -18 69 -33 67 -35 -1 -2 -41 12 -87 31 -47 19 -77 35
-68 35 10 0 49 -14 88 -31z m8422 -51 c-6 -6 -7 0 -4 19 5 21 7 23 10 9 2 -10
0 -22 -6 -28z m-8286 -45 c-6 -6 -36 9 -36 18 0 5 9 4 20 -3 10 -7 18 -14 16
-15z m8275 -10 c-8 -15 -10 -15 -11 -2 0 17 10 32 18 25 2 -3 -1 -13 -7 -23z
m-8183 0 c-10 -2 -26 -2 -35 0 -10 3 -2 5 17 5 19 0 27 -2 18 -5z m2122 -63
c8 -5 11 -10 5 -10 -5 0 -17 5 -25 10 -8 5 -10 10 -5 10 6 0 17 -5 25 -10z
m50 -20 c8 -5 11 -10 5 -10 -5 0 -17 5 -25 10 -8 5 -10 10 -5 10 6 0 17 -5 25
-10z m6034 -236 c3 -8 2 -12 -4 -9 -6 3 -10 10 -10 16 0 14 7 11 14 -7z"/>
<path d="M11590 7130 c0 -5 5 -10 11 -10 5 0 7 5 4 10 -3 6 -8 10 -11 10 -2 0
-4 -4 -4 -10z"/>
<path d="M11448 7063 c7 -3 16 -2 19 1 4 3 -2 6 -13 5 -11 0 -14 -3 -6 -6z"/>
<path d="M11575 7050 c3 -5 11 -10 16 -10 6 0 7 5 4 10 -3 6 -11 10 -16 10 -6
0 -7 -4 -4 -10z"/>
<path d="M9264 6822 c8 -13 66 -56 66 -49 0 3 -17 17 -37 33 -20 15 -33 23
-29 16z"/>
<path d="M9340 6766 c0 -2 8 -10 18 -17 15 -13 16 -12 3 4 -13 16 -21 21 -21
13z"/>
<path d="M10450 6170 c0 -5 5 -10 10 -10 6 0 10 5 10 10 0 6 -4 10 -10 10 -5
0 -10 -4 -10 -10z"/>
<path d="M9035 6770 c3 -5 11 -10 16 -10 6 0 7 5 4 10 -3 6 -11 10 -16 10 -6
0 -7 -4 -4 -10z"/>
<path d="M6955 6500 c-3 -5 -1 -10 4 -10 6 0 11 5 11 10 0 6 -2 10 -4 10 -3 0
-8 -4 -11 -10z"/>
<path d="M10540 5880 c8 -6 24 -15 35 -21 16 -8 15 -6 -4 10 -13 12 -28 21
-35 21 -6 0 -4 -5 4 -10z"/>
<path d="M11930 4981 c0 -6 4 -13 10 -16 6 -3 7 1 4 9 -7 18 -14 21 -14 7z"/>
<path d="M11670 4600 c0 -5 5 -10 11 -10 5 0 7 5 4 10 -3 6 -8 10 -11 10 -2 0
-4 -4 -4 -10z"/>
<path d="M11710 4535 c0 -5 5 -17 10 -25 5 -8 10 -10 10 -5 0 6 -5 17 -10 25
-5 8 -10 11 -10 5z"/>
<path d="M12505 4020 c10 -11 20 -20 22 -20 2 0 -2 9 -9 20 -7 11 -17 20 -22
20 -5 0 -1 -9 9 -20z"/>
<path d="M11652 3420 c0 -14 2 -19 5 -12 2 6 2 18 0 25 -3 6 -5 1 -5 -13z"/>
<path d="M11851 2782 c0 -13 -5 -20 -11 -17 -6 3 -10 -4 -10 -17 0 -20 1 -21
16 -6 9 9 14 26 11 39 l-4 24 -2 -23z"/>
<path d="M11802 2760 c0 -14 2 -19 5 -12 2 6 2 18 0 25 -3 6 -5 1 -5 -13z"/>
<path d="M8420 3170 c-8 -5 -10 -10 -5 -10 6 0 17 5 25 10 8 5 11 10 5 10 -5
0 -17 -5 -25 -10z"/>
<path d="M8601 3284 c0 -11 3 -14 6 -6 3 7 2 16 -1 19 -3 4 -6 -2 -5 -13z"/>
<path d="M8397 2978 c-3 -8 5 -14 20 -14 13 -1 23 -1 21 0 -2 1 -10 7 -19 14
-13 10 -18 10 -22 0z"/>
<path d="M11086 8311 c-15 -6 -16 -10 -7 -16 8 -4 17 -2 22 6 6 11 13 8 33
-11 15 -13 26 -19 26 -13 0 9 -44 44 -52 42 -2 0 -12 -4 -22 -8z"/>
<path d="M11413 8091 c-11 -18 -9 -23 23 -48 97 -75 154 -126 190 -170 21 -26
52 -63 68 -81 17 -18 45 -49 63 -70 45 -51 208 -294 248 -372 19 -35 19 -35
26 -10 18 62 -6 171 -47 220 -7 8 -15 28 -18 43 -8 45 -18 70 -33 86 -13 12
-16 12 -23 0 -17 -27 -19 -2 -5 51 17 63 19 81 6 61 -6 -9 -9 9 -10 52 0 86
-9 121 -26 107 -16 -13 -28 12 -18 37 5 12 3 14 -7 8 -10 -6 -12 -1 -7 23 6
28 3 32 -37 52 -59 28 -131 35 -181 17 -38 -14 -120 -10 -180 8 -14 4 -24 -1
-32 -14z"/>
<path d="M11450 8011 c0 -5 7 -12 16 -15 14 -5 15 -4 4 9 -14 17 -20 19 -20 6z"/>
<path d="M11800 5996 c0 -3 9 -10 20 -16 11 -6 20 -8 20 -6 0 3 -9 10 -20 16
-11 6 -20 8 -20 6z"/>
<path d="M11850 5976 c0 -3 14 -12 30 -21 17 -9 30 -13 30 -11 0 3 -13 12 -30
21 -16 9 -30 13 -30 11z"/>
<path d="M7910 5273 c-14 -2 -47 -8 -75 -14 -75 -16 -86 -17 -132 -18 -29 -1
-50 -9 -72 -27 -38 -31 -39 -42 -6 -54 32 -12 31 -25 -1 -67 -24 -31 -54 -44
-54 -23 0 14 -36 12 -48 -2 -5 -7 -13 -24 -17 -37 -9 -30 -50 -67 -92 -83 -18
-7 -33 -15 -33 -19 0 -4 -7 -10 -16 -13 -12 -5 -15 -2 -10 9 9 24 -22 30 -54
12 -25 -15 -29 -15 -41 -1 -15 18 -17 72 -5 127 8 35 7 37 -16 37 -13 0 -30
-6 -37 -12 -10 -11 -12 -10 -9 2 9 43 -109 -20 -194 -104 -76 -75 -115 -159
-155 -330 -53 -230 -52 -217 -5 -271 50 -57 77 -131 74 -205 -2 -40 0 -51 8
-40 5 8 10 27 10 43 0 15 4 27 8 27 5 0 7 -34 4 -75 -4 -58 -1 -79 10 -93 38
-43 77 -152 55 -152 -6 0 -30 19 -53 43 -67 69 -102 91 -119 77 -15 -12 -12
-53 6 -76 5 -6 6 -14 2 -17 -3 -4 10 -33 29 -64 20 -32 45 -77 57 -101 13 -26
26 -40 33 -36 7 4 8 3 4 -4 -3 -6 3 -16 14 -22 11 -6 26 -23 35 -39 8 -16 26
-31 39 -35 16 -4 23 -11 20 -20 -14 -35 168 -121 284 -134 81 -10 101 -16 90
-28 -4 -3 -71 -10 -149 -15 -79 -6 -146 -13 -149 -16 -19 -19 147 -91 263
-114 59 -11 77 -11 150 5 45 9 91 17 102 18 30 0 206 78 235 104 37 32 84 54
107 48 14 -4 29 5 51 31 34 38 35 43 33 115 0 28 2 38 7 27 6 -15 10 -12 26
17 13 25 17 46 12 78 -3 24 -6 52 -5 63 7 120 1 172 -24 229 -15 32 -27 60
-27 62 0 2 18 4 40 4 36 0 40 3 40 25 0 28 -50 89 -89 109 -14 8 -45 17 -68
21 l-41 6 24 -58 c13 -32 27 -74 30 -94 4 -25 14 -40 29 -47 12 -6 24 -22 27
-35 5 -23 3 -24 -19 -14 -13 5 -26 8 -29 5 -3 -3 -8 -38 -11 -77 -5 -63 -4
-71 13 -77 10 -4 30 -18 43 -33 13 -14 20 -19 16 -11 -3 8 1 6 9 -5 23 -27 36
-83 27 -108 -7 -19 -14 -10 -46 60 -41 88 -65 107 -84 66 -6 -13 -11 -33 -11
-43 0 -24 -31 -90 -42 -90 -4 0 -8 -9 -8 -21 0 -13 -4 -18 -12 -13 -7 5 -9 2
-5 -9 4 -10 -1 -18 -13 -22 -11 -3 -19 -11 -17 -17 1 -6 -6 -12 -15 -13 -10
-2 -36 -19 -58 -38 -45 -39 -79 -47 -190 -47 -129 0 -203 47 -311 198 -130
181 -162 291 -125 428 27 104 128 264 209 334 56 47 152 100 232 127 70 23 96
27 210 27 114 0 141 -3 215 -26 83 -27 209 -94 287 -155 41 -32 173 -97 173
-85 0 5 -25 37 -55 72 -51 60 -72 96 -42 73 6 -6 30 -14 52 -18 43 -8 565 -8
573 0 3 3 25 -18 50 -45 25 -28 49 -50 54 -50 12 0 3 169 -11 215 -33 108 -83
175 -194 254 -157 112 -209 139 -219 110 -2 -7 -10 7 -16 30 -7 22 -19 41 -26
41 -36 0 -169 -48 -282 -101 -22 -10 -48 -19 -57 -19 -19 0 -23 -15 -6 -26 15
-9 84 -116 84 -130 0 -6 15 -24 33 -39 17 -15 30 -31 27 -36 -3 -4 3 -14 15
-21 11 -7 20 -17 20 -22 0 -5 -11 1 -25 14 -13 12 -22 26 -20 30 5 8 -13 26
-44 45 -44 26 -111 80 -111 89 0 5 10 0 23 -11 12 -11 36 -28 52 -38 22 -12
16 -3 -22 33 -33 31 -48 53 -42 59 6 6 2 17 -12 29 -12 10 -22 18 -23 17 -4
-7 -45 11 -40 18 3 5 10 7 15 4 5 -3 6 0 4 7 -3 7 -33 33 -66 58 -33 25 -77
63 -97 85 l-37 40 29 3 c42 5 55 -4 77 -52 11 -25 24 -48 29 -51 35 -21 -36
133 -74 163 -15 11 -44 26 -64 33 -20 6 -44 17 -52 24 -21 17 -71 31 -100 28z
m285 -293 c3 -5 1 -10 -4 -10 -6 0 -11 5 -11 10 0 6 2 10 4 10 3 0 8 -4 11
-10z m-558 -26 c-3 -3 -12 -4 -19 -1 -8 3 -5 6 6 6 11 1 17 -2 13 -5z m102
-198 c10 -12 4 -17 -40 -30 -77 -23 -85 -21 -57 13 26 33 77 42 97 17z m-475
-11 c-4 -8 -10 -15 -15 -15 -4 0 -6 -8 -3 -17 5 -15 4 -15 -5 -3 -7 11 -6 19
6 32 20 22 24 23 17 3z m-216 -20 c-3 -3 -9 2 -12 12 -6 14 -5 15 5 6 7 -7 10
-15 7 -18z m1387 -60 l30 -27 -30 21 c-16 11 -43 32 -60 46 l-30 27 30 -21
c17 -11 44 -32 60 -46z m-628 41 c0 -9 -26 -17 -86 -25 -47 -7 -97 -14 -111
-17 -14 -3 -3 5 24 16 40 17 106 33 162 39 6 0 11 -5 11 -13z m-737 -37 c0 -5
-4 -9 -10 -9 -5 0 -10 7 -10 16 0 8 5 12 10 9 6 -3 10 -10 10 -16z m1489 -63
c24 -24 29 -36 20 -41 -7 -5 -10 -4 -5 3 3 5 3 12 -1 14 -11 4 -58 58 -52 58
3 0 20 -15 38 -34z m517 -113 c15 -20 23 -33 16 -29 -13 8 -56 66 -49 66 3 0
17 -17 33 -37z m-1036 -383 c0 -5 -2 -10 -4 -10 -3 0 -8 5 -11 10 -3 6 -1 10
4 10 6 0 11 -4 11 -10z m-853 -331 c18 -30 44 -65 58 -79 14 -14 25 -29 25
-33 0 -14 -17 -6 -46 22 -16 15 -44 36 -61 45 -32 16 -73 61 -74 81 0 10 38
25 56 21 6 -1 24 -27 42 -57z m773 -239 c0 -5 -5 -10 -11 -10 -5 0 -7 5 -4 10
3 6 8 10 11 10 2 0 4 -4 4 -10z m-9 -37 c-9 -17 -47 -53 -55 -53 -2 0 -3 8 -1
18 1 9 7 16 13 15 5 -1 18 7 27 17 22 25 29 26 16 3z m-271 -87 c0 -2 -8 -10
-17 -17 -16 -13 -17 -12 -4 4 13 16 21 21 21 13z"/>
<path d="M7472 4341 c-167 -62 -260 -247 -207 -413 23 -73 40 -95 60 -78 8 7
15 24 16 39 l0 26 17 -25 c106 -156 239 -198 374 -116 77 46 101 86 96 163 -3
55 -8 67 -38 98 -42 43 -87 59 -142 50 -93 -16 -132 -122 -69 -186 30 -29 55
-36 79 -21 9 6 6 12 -13 20 -17 8 -25 19 -25 37 0 29 19 40 55 31 77 -20 36
-142 -57 -166 -118 -32 -258 98 -258 239 0 150 117 252 273 238 80 -7 152 -45
222 -118 66 -69 83 -63 45 15 -68 142 -277 223 -428 167z m273 -291 c27 -10
64 -47 65 -64 0 -6 -6 -1 -14 10 -8 10 -18 19 -23 20 -4 0 -21 6 -36 12 -16 7
-45 12 -65 13 -30 0 -33 2 -17 9 28 12 59 12 90 0z"/>
<path d="M10604 3998 c3 -13 14 -65 23 -115 15 -86 18 -93 40 -93 62 0 123 53
123 108 0 44 -71 94 -164 116 -26 6 -28 5 -22 -16z"/>
<path d="M6420 3543 c0 -6 8 -17 18 -24 16 -13 16 -13 2 6 -8 11 -16 22 -17
24 -2 2 -3 0 -3 -6z"/>
<path d="M2281 3264 c0 -11 3 -14 6 -6 3 7 2 16 -1 19 -3 4 -6 -2 -5 -13z"/>
<path d="M2421 3264 c0 -11 3 -14 6 -6 3 7 2 16 -1 19 -3 4 -6 -2 -5 -13z"/>
<path d="M2295 3190 c3 -5 8 -10 11 -10 2 0 4 5 4 10 0 6 -5 10 -11 10 -5 0
-7 -4 -4 -10z"/>
<path d="M2421 3134 c0 -11 3 -14 6 -6 3 7 2 16 -1 19 -3 4 -6 -2 -5 -13z"/>
<path d="M2401 3124 c0 -11 3 -14 6 -6 3 7 2 16 -1 19 -3 4 -6 -2 -5 -13z"/>
<path d="M7150 3000 c8 -5 22 -9 30 -9 10 0 8 3 -5 9 -27 12 -43 12 -25 0z"/>
<path d="M11696 2453 c-6 -14 -5 -15 5 -6 7 7 10 15 7 18 -3 3 -9 -2 -12 -12z"/>
<path d="M12531 579 c-7 -12 -10 -23 -8 -26 3 -3 11 5 17 17 15 28 8 35 -9 9z"/>
<path d="M5040 546 c0 -3 9 -10 20 -16 11 -6 20 -8 20 -6 0 3 -9 10 -20 16
-11 6 -20 8 -20 6z"/>
<path d="M5140 490 c19 -11 40 -19 45 -19 6 0 -6 8 -25 19 -19 11 -39 19 -45
19 -5 0 6 -8 25 -19z"/>
<path d="M5207 459 c7 -7 15 -10 18 -7 3 3 -2 9 -12 12 -14 6 -15 5 -6 -5z"/>
<path d="M12390 385 c-19 -19 -30 -35 -24 -34 9 0 70 69 62 69 -2 0 -19 -16
-38 -35z"/>
<path d="M12279 243 c-13 -16 -12 -17 4 -4 9 7 17 15 17 17 0 8 -8 3 -21 -13z"/>
</g>
</svg>
